<svg width="282" height="278" viewBox="0 0 282 278" fill="none" xmlns="http://www.w3.org/2000/svg">
<path d="M249.946 216.531C251.597 217.685 252.004 219.963 250.807 221.584C230.708 248.796 201.341 267.781 168.184 274.902C133.836 282.278 97.9688 276.374 67.797 258.378C37.6252 240.382 15.3867 211.629 5.55455 177.902C-4.27763 144.175 -0.974147 107.976 14.8006 76.5855C30.5753 45.1953 57.651 20.9425 90.5818 8.70527C123.513 -3.53195 159.856 -2.84581 192.301 10.6257C224.747 24.0972 250.888 49.3546 265.466 81.318C279.54 112.173 281.83 147.068 271.989 179.434C271.403 181.362 269.332 182.395 267.42 181.759V181.759C265.508 181.122 264.479 179.057 265.063 177.128C274.323 146.513 272.135 113.523 258.827 84.3462C245.014 54.0608 220.245 30.1293 189.503 17.3651C158.761 4.6008 124.326 3.95068 93.1236 15.5455C61.9216 27.1403 36.2673 50.1198 21.3208 79.8622C6.37419 109.605 3.24413 143.903 12.5601 175.86C21.8761 207.816 42.9471 235.06 71.535 252.111C100.123 269.162 134.107 274.756 166.652 267.767C198.006 261.034 225.783 243.104 244.823 217.403C246.023 215.784 248.294 215.377 249.946 216.531V216.531Z" fill="#FF9431"/>
<path d="M280 177.5L263.5 189.5L258.5 171.5L280 177.5Z" fill="#FF9431" stroke="#FF9431"/>
<path d="M78.1023 175.994C73.4148 175.994 69.2363 175.189 65.5668 173.58C61.9209 171.97 59.0208 169.732 56.8665 166.868C54.7358 163.98 53.5758 160.63 53.3864 156.818H62.3352C62.5246 159.162 63.3295 161.186 64.75 162.891C66.1705 164.571 68.0289 165.874 70.3253 166.797C72.6217 167.72 75.1667 168.182 77.9602 168.182C81.0852 168.182 83.8551 167.637 86.2699 166.548C88.6847 165.459 90.5786 163.944 91.9517 162.003C93.3248 160.062 94.0114 157.812 94.0114 155.256C94.0114 152.58 93.3485 150.225 92.0227 148.189C90.697 146.129 88.7557 144.519 86.1989 143.359C83.642 142.199 80.517 141.619 76.8239 141.619H71V133.807H76.8239C79.7121 133.807 82.2453 133.286 84.4233 132.244C86.625 131.203 88.3414 129.735 89.5724 127.841C90.8272 125.947 91.4545 123.722 91.4545 121.165C91.4545 118.703 90.91 116.56 89.821 114.737C88.732 112.914 87.1932 111.494 85.2045 110.476C83.2396 109.458 80.9195 108.949 78.2443 108.949C75.7348 108.949 73.3674 109.411 71.142 110.334C68.9403 111.233 67.1411 112.547 65.7443 114.276C64.3475 115.98 63.59 118.04 63.4716 120.455H54.9489C55.0909 116.643 56.2391 113.305 58.3935 110.44C60.5478 107.552 63.3651 105.303 66.8452 103.693C70.349 102.083 74.196 101.278 78.3864 101.278C82.8845 101.278 86.7434 102.19 89.9631 104.013C93.1828 105.812 95.6567 108.191 97.3849 111.151C99.1132 114.11 99.9773 117.306 99.9773 120.739C99.9773 124.834 98.9001 128.326 96.7457 131.214C94.6151 134.103 91.715 136.103 88.0455 137.216V137.784C92.6383 138.542 96.2249 140.495 98.8054 143.643C101.386 146.768 102.676 150.639 102.676 155.256C102.676 159.209 101.599 162.76 99.4446 165.909C97.3139 169.034 94.402 171.496 90.7088 173.295C87.0156 175.095 82.8134 175.994 78.1023 175.994ZM141.348 175.994C138.365 175.947 135.382 175.379 132.399 174.29C129.416 173.201 126.694 171.366 124.232 168.786C121.769 166.181 119.793 162.666 118.301 158.239C116.81 153.788 116.064 148.201 116.064 141.477C116.064 135.038 116.668 129.332 117.875 124.361C119.082 119.366 120.834 115.163 123.131 111.754C125.427 108.321 128.197 105.717 131.44 103.942C134.707 102.166 138.389 101.278 142.484 101.278C146.556 101.278 150.179 102.095 153.351 103.729C156.547 105.339 159.151 107.588 161.163 110.476C163.176 113.364 164.478 116.69 165.07 120.455H156.405C155.6 117.187 154.037 114.477 151.717 112.322C149.397 110.168 146.32 109.091 142.484 109.091C136.85 109.091 132.411 111.541 129.168 116.442C125.948 121.342 124.326 128.22 124.303 137.074H124.871C126.196 135.062 127.771 133.345 129.594 131.925C131.44 130.481 133.476 129.368 135.702 128.587C137.927 127.805 140.283 127.415 142.768 127.415C146.935 127.415 150.747 128.456 154.203 130.54C157.66 132.599 160.429 135.452 162.513 139.098C164.596 142.72 165.638 146.875 165.638 151.562C165.638 156.061 164.632 160.18 162.619 163.92C160.607 167.637 157.778 170.597 154.132 172.798C150.51 174.976 146.249 176.042 141.348 175.994ZM141.348 168.182C144.331 168.182 147.006 167.436 149.374 165.945C151.765 164.453 153.647 162.453 155.02 159.943C156.417 157.434 157.115 154.64 157.115 151.562C157.115 148.556 156.44 145.821 155.091 143.359C153.765 140.874 151.93 138.897 149.587 137.429C147.267 135.961 144.615 135.227 141.632 135.227C139.383 135.227 137.288 135.677 135.347 136.577C133.405 137.453 131.701 138.66 130.233 140.199C128.789 141.738 127.652 143.501 126.824 145.49C125.995 147.455 125.581 149.527 125.581 151.705C125.581 154.593 126.256 157.292 127.605 159.801C128.978 162.311 130.848 164.335 133.216 165.874C135.607 167.412 138.318 168.182 141.348 168.182ZM202.33 175.994C198.163 175.994 194.411 175.166 191.073 173.509C187.735 171.851 185.06 169.579 183.047 166.69C181.035 163.802 179.934 160.511 179.745 156.818H188.267C188.599 160.109 190.09 162.831 192.742 164.986C195.417 167.116 198.613 168.182 202.33 168.182C205.313 168.182 207.964 167.483 210.284 166.087C212.628 164.69 214.463 162.772 215.789 160.334C217.138 157.872 217.813 155.09 217.813 151.989C217.813 148.816 217.114 145.987 215.718 143.501C214.345 140.992 212.451 139.015 210.036 137.571C207.621 136.127 204.863 135.393 201.762 135.369C199.536 135.346 197.252 135.689 194.908 136.399C192.564 137.086 190.635 137.973 189.12 139.062L180.881 138.068L185.284 102.273H223.069V110.085H192.671L190.114 131.534H190.54C192.032 130.35 193.902 129.368 196.151 128.587C198.4 127.805 200.744 127.415 203.182 127.415C207.633 127.415 211.598 128.48 215.078 130.611C218.582 132.718 221.328 135.606 223.317 139.276C225.329 142.945 226.336 147.135 226.336 151.847C226.336 156.487 225.294 160.63 223.211 164.276C221.151 167.898 218.31 170.762 214.688 172.869C211.066 174.953 206.946 175.994 202.33 175.994Z" fill="#FF9431"/>
</svg>
