<svg  width="400" height="400" viewBox="0 0 400 400" fill="none" xmlns="http://www.w3.org/2000/svg">
<circle cx="200" cy="200" r="199.5" fill="white" stroke="#C9C9C9"/>
<path d="M258.022 216.905C258.022 218 257.613 219.049 256.885 219.823C256.157 220.597 255.17 221.032 254.141 221.032H242.496V233.411C242.496 234.505 242.087 235.554 241.359 236.328C240.632 237.102 239.644 237.537 238.615 237.537C237.585 237.537 236.598 237.102 235.87 236.328C235.142 235.554 234.733 234.505 234.733 233.411V221.032H223.089C222.059 221.032 221.072 220.597 220.344 219.823C219.616 219.049 219.207 218 219.207 216.905C219.207 215.811 219.616 214.761 220.344 213.988C221.072 213.214 222.059 212.779 223.089 212.779H234.733V200.4C234.733 199.306 235.142 198.256 235.87 197.482C236.598 196.708 237.585 196.274 238.615 196.274C239.644 196.274 240.632 196.708 241.359 197.482C242.087 198.256 242.496 199.306 242.496 200.4V212.779H254.141C255.17 212.779 256.157 213.214 256.885 213.988C257.613 214.761 258.022 215.811 258.022 216.905ZM176.511 212.779H145.459C144.43 212.779 143.443 213.214 142.715 213.988C141.987 214.761 141.578 215.811 141.578 216.905C141.578 218 141.987 219.049 142.715 219.823C143.443 220.597 144.43 221.032 145.459 221.032H176.511C177.541 221.032 178.528 220.597 179.256 219.823C179.984 219.049 180.393 218 180.393 216.905C180.393 215.811 179.984 214.761 179.256 213.988C178.528 213.214 177.541 212.779 176.511 212.779ZM304.6 167.389V266.421C304.6 269.704 303.373 272.853 301.189 275.174C299.006 277.496 296.044 278.8 292.956 278.8H106.644C103.556 278.8 100.594 277.496 98.4106 275.174C96.2268 272.853 95 269.704 95 266.421V167.389C95 164.106 96.2268 160.958 98.4106 158.636C100.594 156.315 103.556 155.011 106.644 155.011H126.052V134.379C126.052 131.096 127.279 127.947 129.462 125.626C131.646 123.304 134.608 122 137.696 122H168.748C171.836 122 174.798 123.304 176.982 125.626C179.166 127.947 180.393 131.096 180.393 134.379V155.011H219.207V134.379C219.207 131.096 220.434 127.947 222.618 125.626C224.802 123.304 227.764 122 230.852 122H261.904C264.992 122 267.954 123.304 270.138 125.626C272.321 127.947 273.548 131.096 273.548 134.379V155.011H292.956C296.044 155.011 299.006 156.315 301.189 158.636C303.373 160.958 304.6 164.106 304.6 167.389ZM226.97 155.011H265.785V134.379C265.785 133.285 265.376 132.235 264.648 131.461C263.92 130.687 262.933 130.253 261.904 130.253H230.852C229.822 130.253 228.835 130.687 228.107 131.461C227.379 132.235 226.97 133.285 226.97 134.379V155.011ZM133.815 155.011H172.63V134.379C172.63 133.285 172.221 132.235 171.493 131.461C170.765 130.687 169.778 130.253 168.748 130.253H137.696C136.667 130.253 135.68 130.687 134.952 131.461C134.224 132.235 133.815 133.285 133.815 134.379V155.011ZM296.837 167.389C296.837 166.295 296.428 165.246 295.7 164.472C294.972 163.698 293.985 163.263 292.956 163.263H106.644C105.615 163.263 104.628 163.698 103.9 164.472C103.172 165.246 102.763 166.295 102.763 167.389V266.421C102.763 267.515 103.172 268.565 103.9 269.339C104.628 270.113 105.615 270.547 106.644 270.547H292.956C293.985 270.547 294.972 270.113 295.7 269.339C296.428 268.565 296.837 267.515 296.837 266.421V167.389Z" fill="#C9C9C9"/>
</svg>
