<svg width="400" height="400" viewBox="0 0 400 400" fill="none" xmlns="http://www.w3.org/2000/svg">
<circle cx="200" cy="200" r="199.5" fill="white" stroke="#C9C9C9"/>
<path d="M90.2738 78L78 90.2654L99.6216 127.631L113.643 125.576L199.233 211.116L191.932 218.122C188.193 221.859 188.193 227.52 191.932 231.256L195.727 235.058C199.466 238.795 205.187 238.795 207.992 235.058L219.097 246.147C218.162 251.752 219.097 258.412 223.771 263.083L274.305 313.293C284.588 323.569 301.414 323.569 311.697 313.293C323.849 302.083 323.737 285.325 313.454 275.049L263.209 224.54C258.536 219.869 251.87 218.001 246.262 219.869L233.988 208.781C236.792 205.044 236.792 199.327 233.988 196.515L230.483 193.022C229.633 192.136 228.613 191.431 227.483 190.95C226.354 190.469 225.139 190.221 223.911 190.221C222.683 190.221 221.468 190.469 220.339 190.95C219.209 191.431 218.189 192.136 217.339 193.022L211.207 199.15L125.618 113.619L127.656 99.6068L90.2738 78ZM272.557 78.2896C254.114 76.7576 229.66 88.9762 218.218 99.5975C204.14 113.666 206.44 132.059 217.629 149.817L197.774 169.668L211.796 185.427C219.274 178.888 230.305 178.888 237.783 185.427L241.588 189.22L242.467 190.098L250.646 181.924C267.547 191.854 285.14 193.283 298.554 179.878C311.641 167.734 325.831 137.785 319.287 120.037L293.001 147.183C289.262 150.92 283.597 150.92 279.858 147.183L252.684 120.037C251.798 119.187 251.092 118.168 250.611 117.039C250.129 115.911 249.881 114.697 249.881 113.47C249.881 112.243 250.129 111.028 250.611 109.9C251.092 108.771 251.798 107.752 252.684 106.903L279.867 79.7562C277.53 78.9341 275.193 78.5138 272.557 78.2896ZM169.731 194.769L135.835 228.631C132.193 227.823 128.47 227.431 124.739 227.464C98.5653 227.464 78 248.015 78 274.171C78 300.327 98.5653 320.879 124.739 320.879C150.913 320.879 171.479 300.327 171.479 274.171C171.479 269.379 170.722 264.774 169.432 260.449L189.296 240.598L186.379 236.805C178.901 229.332 178.957 218.01 185.501 210.528L169.731 194.769ZM242.177 237.394C243.345 237.394 244.448 237.618 245.383 238.561L300.601 293.732C302.471 295.601 302.471 298.571 300.601 300.439C298.731 302.308 295.74 302.308 293.87 300.439L238.671 245.269C236.802 243.4 236.802 240.43 238.671 238.561C239.606 237.627 241.008 237.394 242.177 237.394ZM131.171 249.93L148.988 267.744L142.556 291.967L118.317 298.394L100.491 280.579L106.922 256.357L131.171 249.93Z" fill="#C9C9C9"/>
</svg>
