<svg width="400" height="400" viewBox="0 0 400 400" fill="none" xmlns="http://www.w3.org/2000/svg">
<circle cx="200" cy="200" r="199.5" fill="white" stroke="#C9C9C9"/>
<path d="M106 176C106 174.409 106.632 172.883 107.757 171.757C108.883 170.632 110.409 170 112 170H128C129.591 170 131.117 170.632 132.243 171.757C133.368 172.883 134 174.409 134 176C134 177.591 133.368 179.117 132.243 180.243C131.117 181.368 129.591 182 128 182H112C110.409 182 108.883 181.368 107.757 180.243C106.632 179.117 106 177.591 106 176ZM144.84 129.33C145.395 129.895 146.057 130.344 146.786 130.652C147.516 130.96 148.299 131.121 149.091 131.124C149.883 131.128 150.668 130.975 151.401 130.674C152.133 130.373 152.799 129.929 153.36 129.37C153.92 128.81 154.364 128.145 154.666 127.413C154.968 126.68 155.122 125.896 155.119 125.104C155.117 124.312 154.957 123.528 154.65 122.798C154.343 122.068 153.894 121.406 153.33 120.85L142 109.53C140.856 108.516 139.368 107.976 137.839 108.022C136.311 108.068 134.858 108.696 133.777 109.777C132.696 110.858 132.068 112.311 132.022 113.839C131.976 115.368 132.516 116.856 133.53 118L144.84 129.33ZM200 110C201.591 110 203.117 109.368 204.243 108.243C205.368 107.117 206 105.591 206 104V88C206 86.4087 205.368 84.8826 204.243 83.7574C203.117 82.6321 201.591 82 200 82C198.409 82 196.883 82.6321 195.757 83.7574C194.632 84.8826 194 86.4087 194 88V104C194 105.591 194.632 107.117 195.757 108.243C196.883 109.368 198.409 110 200 110ZM250.91 131.09C251.699 131.091 252.481 130.935 253.21 130.633C253.94 130.331 254.602 129.889 255.16 129.33L266.47 118C267.484 116.856 268.024 115.368 267.978 113.839C267.932 112.311 267.304 110.858 266.223 109.777C265.142 108.696 263.689 108.068 262.16 108.022C260.632 107.976 259.144 108.516 258 109.53L246.67 120.85C245.832 121.689 245.261 122.758 245.03 123.921C244.799 125.084 244.918 126.29 245.372 127.385C245.825 128.481 246.594 129.418 247.579 130.077C248.565 130.736 249.724 131.089 250.91 131.09ZM266 176C266 177.591 266.632 179.117 267.757 180.243C268.883 181.368 270.409 182 272 182H288C289.591 182 291.117 181.368 292.243 180.243C293.368 179.117 294 177.591 294 176C294 174.409 293.368 172.883 292.243 171.757C291.117 170.632 289.591 170 288 170H272C270.409 170 268.883 170.632 267.757 171.757C266.632 172.883 266 174.409 266 176ZM160 182C161.591 182 163.117 181.368 164.243 180.243C165.368 179.117 166 177.591 166 176C166 166.983 169.582 158.335 175.958 151.958C182.335 145.582 190.983 142 200 142C209.017 142 217.665 145.582 224.042 151.958C230.418 158.335 234 166.983 234 176C234 177.591 234.632 179.117 235.757 180.243C236.883 181.368 238.409 182 240 182C241.591 182 243.117 181.368 244.243 180.243C245.368 179.117 246 177.591 246 176C246 163.8 241.154 152.1 232.527 143.473C223.9 134.846 212.2 130 200 130C187.8 130 176.1 134.846 167.473 143.473C158.846 152.1 154 163.8 154 176C154 177.591 154.632 179.117 155.757 180.243C156.883 181.368 158.409 182 160 182ZM309.18 291C308.655 291.91 307.9 292.666 306.991 293.192C306.082 293.719 305.05 293.997 304 294H95.9999C94.952 293.999 93.9225 293.724 93.0141 293.202C92.1056 292.679 91.3497 291.928 90.8218 291.023C90.2938 290.118 90.0121 289.09 90.0048 288.042C89.9974 286.994 90.2647 285.963 90.7799 285.05L131.47 213.05C131.993 212.124 132.753 211.353 133.672 210.817C134.591 210.281 135.636 209.999 136.7 210H263.3C264.364 209.999 265.409 210.281 266.328 210.817C267.247 211.353 268.007 212.124 268.53 213.05L309.22 285.05C309.731 285.96 309.996 286.987 309.989 288.03C309.982 289.074 309.703 290.097 309.18 291ZM259.8 222H231.8L236.15 242H271.15L259.8 222ZM223.86 242L219.51 222H180.51L176.16 242H223.86ZM173.53 254L167.44 282H232.56L226.47 254H173.53ZM128.89 242H163.89L168.24 222H140.24L128.89 242ZM106.28 282H155.16L161.25 254H122.11L106.28 282ZM293.72 282L277.89 254H238.75L244.84 282H293.72Z" fill="#C9C9C9"/>
</svg>
