<svg width="400" height="400" viewBox="0 0 400 400" fill="none" xmlns="http://www.w3.org/2000/svg">
<circle cx="200" cy="200" r="199.5" fill="white" stroke="#C9C9C9"/>
<path d="M328.951 199.5C328.951 126.32 270.313 67 197.976 67C125.638 67 67 126.32 67 199.5C67 272.68 125.638 332 197.976 332" stroke="#C9C9C9" stroke-width="6.5" stroke-linecap="round" stroke-linejoin="round"/>
<path d="M211.073 67.6625C211.073 67.6625 250.366 120 250.366 199.5M184.878 331.338C184.878 331.338 145.585 279 145.585 199.5C145.585 120 184.878 67.6625 184.878 67.6625M75.2515 245.875H197.976M75.2515 153.125H320.7" stroke="#C9C9C9" stroke-width="6.5" stroke-linecap="round" stroke-linejoin="round"/>
<path d="M327.366 277.9C333.837 281.928 333.431 291.72 326.777 292.489L293.156 296.344L278.08 326.978C275.094 333.06 265.86 330.079 264.328 322.553L247.89 241.516C246.594 235.156 252.252 231.154 257.714 234.56L327.366 277.9Z" stroke="#C9C9C9" stroke-width="6.5"/>
</svg>
